<?xml version="1.0" encoding="UTF-8"?><svg id="a" xmlns="http://www.w3.org/2000/svg" viewBox="0 0 153.82 196.96"><defs><style>.b{fill:#84bbfd;}.c{fill:#758193;}.d{fill:#d1d2d3;}.e{fill:#65c936;}</style></defs><g><rect class="c" x="42.83" y="12.44" width="57.82" height="120.89"/><rect class="d" x="41" y="12.3" width="14.12" height="121.04"/><rect class="d" x="87.88" y="12.44" width="14.12" height="121.04"/></g><g><path class="e" d="M45.84,119.08v-10.3l4.13,.08v10.3m-4.17-13.97v-10.3l4.13,.08v10.3m-4.1-13.89v-10.3l4.13,.08v10.3m-4.1-13.89v-10.3l4.13,.08v10.3m-4.1-13.89v-10.3l4.13,.08v10.3m-4.17-13.97v-10.3l4.13,.08v10.3m-4.1-13.89l.05-9.91,4.13,.08-.05,9.91"/><polygon class="e" points="47.92 20.83 47.92 20.83 43.59 26.43 52.08 26.69 47.92 20.83"/><polygon class="e" points="47.55 124.28 47.55 124.28 52.04 118.69 43.48 118.35 47.55 124.28"/></g><g><path class="b" d="M69.27,124.4l.02-10.99,4.3,.03-.02,10.99m-4.23-14.62l.02-10.99,4.3,.03-.02,10.99m-4.23-14.62l.02-10.99,4.3,.03-.02,10.99m-4.31-14.55l.02-10.99,4.3,.03-.02,10.99m-4.23-14.62l.02-10.99,4.3,.03-.02,10.99m-4.31-14.55l.02-10.99,4.3,.03-.02,10.99m-4.23-14.62l.05-10.45,4.3,.03-.05,10.45"/><polygon class="b" points="71.7 20.85 71.7 20.85 67.09 26.79 76.13 27.04 71.7 20.85"/></g><g><path class="e" d="M93.52,119.2v-10.3l4.13,.08v10.3m-4.17-13.97v-10.3l4.13,.08v10.3m-4.1-13.89v-10.3l4.13,.08v10.3m-4.1-13.89v-10.3l4.13,.08v10.3m-4.1-13.89v-10.3l4.13,.08v10.3m-4.17-13.97v-10.3l4.13,.08v10.3m-4.1-13.89l.05-9.91,4.13,.08-.05,9.91"/><polygon class="e" points="95.59 20.95 95.59 20.95 91.27 26.55 99.75 26.81 95.59 20.95"/><polygon class="e" points="95.23 124.4 95.23 124.4 99.71 118.81 91.15 118.47 95.23 124.4"/></g></svg>