<?xml version="1.0" encoding="UTF-8"?><svg id="a" xmlns="http://www.w3.org/2000/svg" viewBox="0 0 153.82 196.96"><defs><style>.b{fill:#84bbfd;}.c{fill:#758193;}</style></defs><rect class="c" x="42.83" y="12.44" width="57.82" height="120.89"/><g><path class="b" d="M70.56,119.15v-10.32l4.14,.08v10.32m-4.18-13.99v-10.32l4.14,.08v10.32m-4.1-13.91v-10.32l4.14,.08v10.32m-4.1-13.91v-10.32l4.14,.08v10.32m-4.1-13.91v-10.32l4.14,.08v10.32m-4.18-13.99v-10.32l4.14,.08v10.32m-4.1-13.91l.05-9.92,4.14,.08-.05,9.92"/><polygon class="b" points="72.64 20.77 72.64 20.77 68.31 26.38 76.8 26.63 72.64 20.77"/><polygon class="b" points="72.27 124.36 72.27 124.36 76.76 118.77 68.19 118.43 72.27 124.36"/></g></svg>