<?xml version="1.0" encoding="UTF-8"?><svg id="a" xmlns="http://www.w3.org/2000/svg" viewBox="0 0 153.82 196.96"><defs><style>.b{fill:#84bbfd;}.c{fill:#758193;}</style></defs><rect class="c" x="42.83" y="12.44" width="57.82" height="120.89"/><g><path class="b" d="M70.27,124.4l.02-10.99,4.3,.03-.02,10.99m-4.23-14.62l.02-10.99,4.3,.03-.02,10.99m-4.23-14.62l.02-10.99,4.3,.03-.02,10.99m-4.31-14.55l.02-10.99,4.3,.03-.02,10.99m-4.23-14.62l.02-10.99,4.3,.03-.02,10.99m-4.31-14.55l.02-10.99,4.3,.03-.02,10.99m-4.23-14.62l.05-10.45,4.3,.03-.05,10.45"/><polygon class="b" points="72.7 20.85 72.7 20.85 68.09 26.79 77.13 27.04 72.7 20.85"/></g></svg>