<?xml version="1.0" encoding="UTF-8"?><svg id="a" xmlns="http://www.w3.org/2000/svg" viewBox="0 0 153.82 196.96"><defs><style>.b{fill:#84bbfd;}.c{fill:#758193;}.d{fill:#d1d2d3;}.e{fill:#65c936;}.f{fill:#f7f7f7;}</style></defs><g><rect class="c" x="33.67" y="12.44" width="77.33" height="120.89"/><rect class="f" x="69" y="15" width="7.33" height="17.33"/><rect class="f" x="69.11" y="35.33" width="7.33" height="17.33"/><rect class="f" x="69.06" y="55.39" width="7.33" height="17.33"/><rect class="f" x="69.17" y="75.72" width="7.33" height="17.33"/><rect class="f" x="69.28" y="96.06" width="7.33" height="15.77"/><rect class="f" x="69.39" y="114.56" width="7.33" height="15.77"/><rect class="d" x="31.22" y="12.3" width="18.89" height="121.04"/><rect class="d" x="93.93" y="12.44" width="18.89" height="121.04"/></g><g><path class="b" d="M82.27,124.4l.02-10.99,4.3,.03-.02,10.99m-4.23-14.62l.02-10.99,4.3,.03-.02,10.99m-4.23-14.62l.02-10.99,4.3,.03-.02,10.99m-4.31-14.55l.02-10.99,4.3,.03-.02,10.99m-4.23-14.62l.02-10.99,4.3,.03-.02,10.99m-4.31-14.55l.02-10.99,4.3,.03-.02,10.99m-4.23-14.62l.05-10.45,4.3,.03-.05,10.45"/><polygon class="b" points="84.7 20.85 84.7 20.85 80.09 26.79 89.13 27.04 84.7 20.85"/></g><g><path class="e" d="M38.56,119.15v-10.32l4.14,.08v10.32m-4.18-13.99v-10.32l4.14,.08v10.32m-4.1-13.91v-10.32l4.14,.08v10.32m-4.1-13.91v-10.32l4.14,.08v10.32m-4.1-13.91v-10.32l4.14,.08v10.32m-4.18-13.99v-10.32l4.14,.08v10.32m-4.1-13.91l.05-9.92,4.14,.08-.05,9.92"/><polygon class="e" points="40.64 20.77 40.64 20.77 36.31 26.38 44.8 26.63 40.64 20.77"/><polygon class="e" points="40.27 124.36 40.27 124.36 44.76 118.77 36.19 118.43 40.27 124.36"/></g><g><path class="e" d="M101.52,119.2v-10.3l4.13,.08v10.3m-4.17-13.97v-10.3l4.13,.08v10.3m-4.1-13.89v-10.3l4.13,.08v10.3m-4.1-13.89v-10.3l4.13,.08v10.3m-4.1-13.89v-10.3l4.13,.08v10.3m-4.17-13.97v-10.3l4.13,.08v10.3m-4.1-13.89l.05-9.91,4.13,.08-.05,9.91"/><polygon class="e" points="103.59 20.95 103.59 20.95 99.27 26.55 107.75 26.81 103.59 20.95"/><polygon class="e" points="103.23 124.4 103.23 124.4 107.71 118.81 99.15 118.47 103.23 124.4"/></g><g><path class="b" d="M61.4,20.41l-.02,11.05-4.33-.03,.02-11.05m4.26,14.71l-.02,11.05-4.33-.03,.02-11.05m4.26,14.71l-.02,11.05-4.33-.03,.02-11.05m4.34,14.64l-.02,11.05-4.33-.03,.02-11.05m4.26,14.71l-.02,11.05-4.33-.03,.02-11.05m4.34,14.64l-.02,11.05-4.33-.03,.02-11.05m4.26,14.71l-.05,10.51-4.33-.03,.05-10.51"/><polygon class="b" points="58.95 124.54 58.95 124.54 63.59 118.57 54.49 118.32 58.95 124.54"/></g></svg>