<?xml version="1.0" encoding="utf-8"?>
<!-- Generator: Adobe Illustrator 26.1.0, SVG Export Plug-In . SVG Version: 6.00 Build 0)  -->
<svg version="1.1" id="a" xmlns="http://www.w3.org/2000/svg" xmlns:xlink="http://www.w3.org/1999/xlink" x="0px" y="0px"
	 viewBox="0 0 143.6 143.6" style="enable-background:new 0 0 143.6 143.6;" xml:space="preserve">
<style type="text/css">
	.st0{display:none;}
	.st1{display:inline;}
	.st2{display:inline;clip-path:url(#SVGID_00000057864321447353644630000015706269440888311472_);}
	.st3{fill:#706428;}
	.st4{fill:#B47300;}
	.st5{fill:#9A8A39;}
	.st6{fill:#E39C03;}
	.st7{fill:#7AC6FF;}
	.st8{fill:#4D4324;}
	.st9{fill:#755902;}
	.st10{fill:#748991;}
	.st11{fill:#8D5B03;}
	.st12{fill:#4A6068;}
	.st13{fill:#4E7989;}
	.st14{fill:#808080;}
	.st15{fill:#434343;}
	.st16{fill:#929191;}
	.st17{fill:#716E6E;}
	.st18{fill:#D4D4D4;}
	.st19{fill:#65C936;}
	.st20{fill:#84BBFD;}
</style>
<g class="st0">
	<defs>
		<rect id="SVGID_1_" width="143.6" height="143.6"/>
	</defs>
	<clipPath id="SVGID_00000030469232221334151320000000980738085885810619_" class="st1">
		<use xlink:href="#SVGID_1_"  style="overflow:visible;"/>
	</clipPath>
	<g style="display:inline;clip-path:url(#SVGID_00000030469232221334151320000000980738085885810619_);">
		<g id="c">
			<path id="d" class="st3" d="M125.3,100.6l-17-17.3c0,0-9.7,6.2-9,7.1s20.9,20.2,20.9,20.2S125.3,100.6,125.3,100.6z"/>
			<path id="e" class="st4" d="M114.1,109.5l-17-17.3c0,0-9.7,6.2-9,7.1s20.9,20.2,20.9,20.2S114.1,109.5,114.1,109.5z"/>
			<path id="f" d="M100.7,116.2l-17-17.3c0,0-9.7,6.2-9,7.1s20.9,20.2,20.9,20.2S100.7,116.2,100.7,116.2z"/>
			<path id="g" class="st5" d="M125.8,102.9l-17.6-17.3c0,0-5,1.8-4.3,2.7s19.2,17.7,19.2,17.7L125.8,102.9L125.8,102.9z"/>
			<path id="h" class="st6" d="M114.6,109.6L97.1,92.3c0,0-5,1.8-4.3,2.7s19.2,17.7,19.2,17.7L114.6,109.6L114.6,109.6z"/>
			<path id="i" class="st7" d="M101.2,116.3L83.6,99.1c0,0-5,1.8-4.3,2.7s19.2,17.7,19.2,17.7L101.2,116.3L101.2,116.3z"/>
			<path id="j" d="M110.9,101.7c1.1-2.5,3.1-4.4,5.6-5.3c4-1.1,5,0,5,0l-4.5-4.4l-12.3,3.6L110.9,101.7z"/>
			<path id="k" d="M99.7,110.7c1.1-2.5,3.1-4.4,5.6-5.3c4-1.1,5,0,5,0l-4.5-4.4l-12.3,3.6L99.7,110.7z"/>
			<path id="l" d="M86.2,117.4c1.1-2.5,3.1-4.4,5.6-5.3c4-1.1,5,0,5,0l-4.5-4.4l-12.3,3.6C80.1,111.4,86.2,117.4,86.2,117.4z"/>
			<g id="m" transform="translate(52.692 44.179) rotate(13)">
				<path class="st8" d="M121.6,110.1c-2.2-0.5-3.4-3-2.8-5.6s2.8-4.3,5-3.8s3.4,3,2.8,5.6C125.9,108.9,123.7,110.6,121.6,110.1z"/>
				<path class="st9" d="M123.5,101.8c-1.5-0.3-3.2,1-3.6,3c-0.4,2,0.4,3.9,2,4.3s3.2-1,3.6-3C125.9,104.1,125,102.2,123.5,101.8
					 M124,99.6c2.8,0.6,4.4,3.8,3.7,6.9c-0.7,3.2-3.6,5.3-6.3,4.6s-4.4-3.8-3.7-6.9C118.4,101.1,121.2,99,124,99.6z"/>
			</g>
			<g id="n" transform="translate(47.692 48.179) rotate(13)">
				<path class="st10" d="M110.3,119.1c-2.2-0.5-3.4-3-2.8-5.6s2.8-4.3,5-3.8c2.2,0.5,3.4,3,2.8,5.6
					C114.7,117.9,112.5,119.6,110.3,119.1z"/>
				<path class="st11" d="M112.3,110.8c-1.5-0.3-3.2,1-3.6,3c-0.4,2,0.4,3.9,2,4.3s3.2-1,3.6-3C114.7,113.1,113.8,111.1,112.3,110.8
					 M112.8,108.6c2.8,0.6,4.4,3.8,3.7,6.9c-0.7,3.2-3.6,5.3-6.3,4.6s-4.4-3.8-3.7-6.9C107.2,110,110,107.9,112.8,108.6z"/>
			</g>
			<g id="o" transform="translate(41.692 51.179) rotate(13)">
				<path class="st12" d="M96.9,125.8c-2.2-0.5-3.4-3-2.8-5.6s2.8-4.3,5-3.8s3.4,3,2.8,5.6S99,126.3,96.9,125.8z"/>
				<path class="st13" d="M98.8,117.5c-1.5-0.3-3.2,1-3.6,3c-0.4,2,0.4,3.9,2,4.3s3.2-1,3.6-3S100.3,117.9,98.8,117.5 M99.3,115.3
					c2.8,0.6,4.4,3.8,3.7,6.9c-0.7,3.2-3.6,5.3-6.3,4.6s-4.4-3.8-3.7-6.9C93.7,116.8,96.5,114.7,99.3,115.3z"/>
			</g>
			<path id="p" class="st14" d="M103.6,96.5l25.4-15L103.6,96.5z"/>
			<path id="q" class="st15" d="M12.1,61.5l66.4,56.9l51.9-31.9v-3.6l-75.8-50L12.1,56.9V61.5z"/>
			<path id="r" class="st16" d="M12,56.8l67,56.3L124,87L56.3,31.2L12,56.8z"/>
			<path id="s" class="st16" d="M130.5,82.7L63.2,26.4L130.5,82.7z"/>
			<path id="t" class="st17" d="M12,56.8l67,56.3l6.9-4.1L19.5,53.5L12,56.8z"/>
			<path id="u" class="st17" d="M56.2,31.2l67,56.3l7.3-4.8L63.2,26.4L56.2,31.2L56.2,31.2z"/>
			<path id="v" d="M36.9,42.6l68.2,55.8l2.8-1.6l-69-55.2L36.9,42.6L36.9,42.6z"/>
		</g>
	</g>
</g>
<g id="a_00000132061518048307754540000008017864593264522910_">
	<path class="st15" d="M1.8,67.6L80.5,135l61.4-40.9v-7.1L1.8,60.6V67.6z"/>
	<path class="st14" d="M1.8,60.4l78.9,67l61.5-40.4L62.6,20.8L1.8,60.4z"/>
	<path class="st18" d="M34.7,46.3l13.6,11.5l6-4L40.8,42.5L34.7,46.3z"/>
	<path class="st18" d="M92.2,93.7l13.6,11.5l6-4L98.2,89.8L92.2,93.7z"/>
	<path class="st18" d="M62.3,68.9l13.6,11.5l6-4L68.4,65.1L62.3,68.9z"/>
</g>
<g>
	<path class="st19" d="M68.4,134.2l-7.1-6.2l2.5-2.8l7.1,6.2 M58.9,126l-7.1-6.2l2.5-2.8l7.1,6.2 M49.4,117.8l-7.1-6.2l2.5-2.8
		l7.1,6.2 M39.9,109.5l-7.1-6.2l2.5-2.8l7.1,6.2 M30.4,101.3l-7.1-6.2l2.5-2.8l7.1,6.2 M20.9,93.1l-7.1-6.2l2.5-2.8l7.1,6.2
		 M11.4,84.9L4.6,79l2.5-2.8l6.8,5.9"/>
	<polygon class="st19" points="2.1,74.4 2.1,74.4 3.4,80.8 8.6,75 	"/>
	<polygon class="st19" points="73,136.1 73,136.1 71.9,129.8 66.5,135.4 	"/>
</g>
<g>
	<path class="st20" d="M21.1,51.7l7.7,6.6l-2.6,3l-7.7-6.6 M31.3,60.5l7.7,6.6l-2.6,3l-7.7-6.6 M41.5,69.3l7.7,6.6l-2.6,3l-7.7-6.6
		 M51.7,78l7.7,6.6l-2.6,3L49.1,81 M61.9,86.8l7.7,6.6l-2.6,3l-7.7-6.6 M72.1,95.5l7.7,6.6l-2.6,3l-7.7-6.6 M82.3,104.3l7.3,6.3
		l-2.6,3l-7.3-6.3"/>
	<polygon class="st20" points="92.3,115.5 92.3,115.5 90.9,108.7 85.3,114.9 	"/>
</g>
<g>
	<path class="st20" d="M123.3,94.5l-7.6-6.6l2.7-3l7.6,6.6 M113.1,85.7l-7.6-6.6l2.7-3l7.6,6.6 M103,76.8l-7.6-6.6l2.7-3l7.6,6.6
		 M92.9,68l-7.6-6.6l2.7-3l7.6,6.6 M82.8,59.2l-7.6-6.6l2.7-3l7.6,6.6 M72.6,50.3L65,43.7l2.7-3l7.6,6.6 M62.5,41.5l-7.3-6.3l2.7-3
		l7.3,6.3"/>
	<polygon class="st20" points="52.7,30.2 52.7,30.2 54,37 59.6,30.8 	"/>
</g>
<g>
	<path class="st19" d="M137.4,78.3l-7.1-6.1l2.5-2.8l7.1,6.1 M127.8,70.1l-7.1-6.1l2.5-2.8l7.1,6.1 M118.3,61.9l-7.1-6.1l2.5-2.8
		l7.1,6.1 M108.8,53.7l-7.1-6.1l2.5-2.8l7.1,6.1 M99.3,45.5l-7.1-6.1l2.5-2.8l7.1,6.1 M89.7,37.3l-7.1-6.1l2.5-2.8l7.1,6.1
		 M80.2,29.1l-6.8-5.9l2.5-2.8l6.8,5.9"/>
	<polygon class="st19" points="70.9,18.7 70.9,18.7 72.2,25 77.4,19.3 	"/>
	<polygon class="st19" points="142,80.2 142,80.2 140.8,73.8 135.5,79.5 	"/>
</g>
</svg>
