<?xml version="1.0" encoding="UTF-8"?><svg id="a" xmlns="http://www.w3.org/2000/svg" viewBox="0 0 153.82 196.96"><defs><style>.b{fill:#84bbfd;}.c{fill:#758193;}.d{fill:#f7f7f7;}</style></defs><g><rect class="c" x="42.83" y="12.44" width="57.82" height="120.89"/><rect class="d" x="69.24" y="15" width="5.48" height="17.33"/><rect class="d" x="69.33" y="35.33" width="5.48" height="17.33"/><rect class="d" x="69.28" y="55.39" width="5.48" height="17.33"/><rect class="d" x="69.37" y="75.72" width="5.48" height="17.33"/><rect class="d" x="69.45" y="96.06" width="5.48" height="15.77"/><rect class="d" x="69.53" y="114.56" width="5.48" height="15.77"/></g><g><path class="b" d="M85.27,124.4l.02-10.99,4.3,.03-.02,10.99m-4.23-14.62l.02-10.99,4.3,.03-.02,10.99m-4.23-14.62l.02-10.99,4.3,.03-.02,10.99m-4.31-14.55l.02-10.99,4.3,.03-.02,10.99m-4.23-14.62l.02-10.99,4.3,.03-.02,10.99m-4.31-14.55l.02-10.99,4.3,.03-.02,10.99m-4.23-14.62l.05-10.45,4.3,.03-.05,10.45"/><polygon class="b" points="87.7 20.85 87.7 20.85 83.09 26.79 92.13 27.04 87.7 20.85"/></g><g><path class="b" d="M53.43,124.31l.02-10.99,4.3,.03-.02,10.99m-4.23-14.62l.02-10.99,4.3,.03-.02,10.99m-4.23-14.62l.02-10.99,4.3,.03-.02,10.99m-4.31-14.55l.02-10.99,4.3,.03-.02,10.99m-4.23-14.62l.02-10.99,4.3,.03-.02,10.99m-4.31-14.55l.02-10.99,4.3,.03-.02,10.99m-4.23-14.62l.05-10.45,4.3,.03-.05,10.45"/><polygon class="b" points="55.87 20.77 55.87 20.77 51.25 26.71 60.3 26.95 55.87 20.77"/></g></svg>