<?xml version="1.0" encoding="UTF-8"?><svg id="a" xmlns="http://www.w3.org/2000/svg" viewBox="0 0 153.82 196.96"><defs><style>.b{fill:#84bbfd;}.c{fill:#758193;}.d{fill:#d1d2d3;}.e{fill:#65c936;}</style></defs><g><rect class="c" x="42.83" y="12.44" width="57.82" height="120.89"/><rect class="d" x="41" y="12.3" width="14.12" height="121.04"/><rect class="d" x="87.88" y="12.44" width="14.12" height="121.04"/></g><g><path class="e" d="M45.84,119.08v-10.3l4.13,.08v10.3m-4.17-13.97v-10.3l4.13,.08v10.3m-4.1-13.89v-10.3l4.13,.08v10.3m-4.1-13.89v-10.3l4.13,.08v10.3m-4.1-13.89v-10.3l4.13,.08v10.3m-4.17-13.97v-10.3l4.13,.08v10.3m-4.1-13.89l.05-9.91,4.13,.08-.05,9.91"/><polygon class="e" points="47.92 20.83 47.92 20.83 43.59 26.43 52.08 26.69 47.92 20.83"/><polygon class="e" points="47.55 124.28 47.55 124.28 52.04 118.69 43.48 118.35 47.55 124.28"/></g><g><path class="b" d="M70.56,119.15v-10.32l4.14,.08v10.32m-4.18-13.99v-10.32l4.14,.08v10.32m-4.1-13.91v-10.32l4.14,.08v10.32m-4.1-13.91v-10.32l4.14,.08v10.32m-4.1-13.91v-10.32l4.14,.08v10.32m-4.18-13.99v-10.32l4.14,.08v10.32m-4.1-13.91l.05-9.92,4.14,.08-.05,9.92"/><polygon class="b" points="72.64 20.77 72.64 20.77 68.31 26.38 76.8 26.63 72.64 20.77"/><polygon class="b" points="72.27 124.36 72.27 124.36 76.76 118.77 68.19 118.43 72.27 124.36"/></g><g><path class="e" d="M93.52,119.2v-10.3l4.13,.08v10.3m-4.17-13.97v-10.3l4.13,.08v10.3m-4.1-13.89v-10.3l4.13,.08v10.3m-4.1-13.89v-10.3l4.13,.08v10.3m-4.1-13.89v-10.3l4.13,.08v10.3m-4.17-13.97v-10.3l4.13,.08v10.3m-4.1-13.89l.05-9.91,4.13,.08-.05,9.91"/><polygon class="e" points="95.59 20.95 95.59 20.95 91.27 26.55 99.75 26.81 95.59 20.95"/><polygon class="e" points="95.23 124.4 95.23 124.4 99.71 118.81 91.15 118.47 95.23 124.4"/></g></svg>