<?xml version="1.0" encoding="utf-8"?>
<!-- Generator: Adobe Illustrator 26.1.0, SVG Export Plug-In . SVG Version: 6.00 Build 0)  -->
<svg version="1.1" id="Layer_1" xmlns="http://www.w3.org/2000/svg" xmlns:xlink="http://www.w3.org/1999/xlink" x="0px" y="0px"
	 viewBox="0 0 128 128" style="enable-background:new 0 0 128 128;" xml:space="preserve">
<style type="text/css">
	.st0{fill:#434343;}
	.st1{fill:#808080;}
	.st2{fill:#65C936;}
</style>
<g id="a">
	<path class="st0" d="M10.4,40.6l80.9,70.2l33-23.7l-0.3-5.3L9.8,33.2L10.4,40.6z"/>
	<path class="st1" d="M9.8,33.2l82.9,70.4L124,81.8L42.4,10.9L9.8,33.2z"/>
</g>
<path class="st2" d="M98.9,87.6l-7.3-6.3l2.6-2.8l7.3,6.3 M89.2,79.2l-7.3-6.3l2.6-2.8l7.3,6.3 M79.4,70.7l-7.3-6.3l2.6-2.8l7.3,6.3
	 M69.7,62.3l-7.3-6.3l2.6-2.8l7.3,6.3 M59.9,53.8l-7.3-6.3l2.6-2.8l7.3,6.3 M50.2,45.4l-7.3-6.3l2.6-2.8l7.3,6.3 M40.4,37l-7-6
	l2.6-2.8l7,6"/>
<polygon class="st2" points="30.9,26.2 30.9,26.2 32.2,32.7 37.6,26.8 "/>
<polygon class="st2" points="103.7,89.6 103.7,89.6 102.5,83 97,88.8 "/>
</svg>
