<?xml version="1.0" encoding="utf-8"?>
<!-- Generator: Adobe Illustrator 26.1.0, SVG Export Plug-In . SVG Version: 6.00 Build 0)  -->
<svg version="1.1" id="a" xmlns="http://www.w3.org/2000/svg" xmlns:xlink="http://www.w3.org/1999/xlink" x="0px" y="0px"
	 viewBox="0 0 29.5 28.7" style="enable-background:new 0 0 29.5 28.7;" xml:space="preserve">
<style type="text/css">
	.st0{fill:#8391A5;}
	.st1{fill:#292E36;}
	.st2{fill:#4E84AA;}
	.st3{fill:#36393B;}
</style>
<path class="st0" d="M29,28.7h-0.8l-1.3-3.2H13.6l0,3h-0.8L7.4,0h15.3L29,28.7L29,28.7z"/>
<path class="st1" d="M22.7,0l-5.2,28.7h-1.1l0.4-3.2h-15l-1,3.2H0L7.4,0H22.7L22.7,0z"/>
<path class="st2" d="M8.4,1.2L2.6,22.6h14l4.2-21.4C20.8,1.2,8.4,1.2,8.4,1.2z"/>
<path class="st3" d="M22.1,3.5l1.1-0.3L29,28.7l0.5-0.2L23.4,0.2L22.7,0C22.7,0,22.1,3.5,22.1,3.5z"/>
</svg>
