<?xml version="1.0" encoding="utf-8"?>
<!-- Generator: Adobe Illustrator 26.1.0, SVG Export Plug-In . SVG Version: 6.00 Build 0)  -->
<svg version="1.1" id="a" xmlns="http://www.w3.org/2000/svg" xmlns:xlink="http://www.w3.org/1999/xlink" x="0px" y="0px"
	 viewBox="0 0 61.6 54" style="enable-background:new 0 0 61.6 54;" xml:space="preserve">
<style type="text/css">
	.st0{fill:#424A42;fill-opacity:0;}
	.st1{fill:#101317;}
	.st2{fill:#778496;}
</style>
<rect class="st0" width="61.6" height="54"/>
<g>
	<path class="st1" d="M28.8,29.4h5.8V45h-5.8C28.8,45,28.8,29.4,28.8,29.4z"/>
	<path class="st2" d="M56.2,8.4H6.9v19.9h49.3V8.4z"/>
	<path class="st1" d="M12.2,6.3h-2.1v1h0.8v1.1h0.4v-1h0.9V6.3z"/>
	<path class="st1" d="M25.5,6.3h-2.1v1h0.8v1.1h0.4v-1h0.8L25.5,6.3L25.5,6.3z"/>
	<path class="st1" d="M38.9,6.3h-2.1v1h0.8v1.1H38v-1h0.8L38.9,6.3L38.9,6.3z"/>
	<path class="st1" d="M52.2,6.3h-2v1H51v1.1h0.4v-1h0.8V6.3z"/>
	<rect x="9.4" y="29" class="st1" width="44.4" height="1.5"/>
</g>
</svg>
