<?xml version="1.0" encoding="utf-8"?>
<!-- Generator: Adobe Illustrator 26.1.0, SVG Export Plug-In . SVG Version: 6.00 Build 0)  -->
<svg version="1.1" id="a" xmlns="http://www.w3.org/2000/svg" xmlns:xlink="http://www.w3.org/1999/xlink" x="0px" y="0px"
	 viewBox="0 0 61.6 54" style="enable-background:new 0 0 61.6 54;" xml:space="preserve">
<style type="text/css">
	.st0{fill:#424A42;fill-opacity:0;}
	.st1{fill:#101317;}
	.st2{fill:#778496;}
</style>
<rect class="st0" width="61.6" height="54"/>
<g>
	<path class="st1" d="M28.5,34.5h3.9v10.4h-3.9V34.5z"/>
	<path class="st2" d="M47,20.5H13.7v13.3H47V20.5z"/>
	<path class="st1" d="M17.3,19.1h-1.4v0.7h0.6v0.7h0.3v-0.7h0.6L17.3,19.1L17.3,19.1z"/>
	<path class="st1" d="M26.3,19.1h-1.4v0.7h0.6v0.7h0.3v-0.7h0.6L26.3,19.1L26.3,19.1z"/>
	<path class="st1" d="M35.3,19.1h-1.4v0.7h0.6v0.7h0.3v-0.7h0.6L35.3,19.1L35.3,19.1z"/>
	<path class="st1" d="M44.3,19.1h-1.4v0.7h0.6v0.7h0.3v-0.7h0.6L44.3,19.1L44.3,19.1z"/>
	<rect x="15.5" y="34.2" class="st1" width="29.9" height="1"/>
</g>
</svg>
