<?xml version="1.0" encoding="utf-8"?>
<!-- Generator: Adobe Illustrator 26.1.0, SVG Export Plug-In . SVG Version: 6.00 Build 0)  -->
<svg version="1.1" id="a" xmlns="http://www.w3.org/2000/svg" xmlns:xlink="http://www.w3.org/1999/xlink" x="0px" y="0px"
	 viewBox="0 0 61.6 54" style="enable-background:new 0 0 61.6 54;" xml:space="preserve">
<style type="text/css">
	.st0{fill:#424A42;fill-opacity:0;}
	.st1{fill:#101317;}
	.st2{fill:#778496;}
</style>
<rect class="st0" width="61.6" height="54"/>
<g>
	<path class="st1" d="M27.8,32.5h4.6V45h-4.6C27.8,45,27.8,32.5,27.8,32.5z"/>
	<path class="st2" d="M50.1,15.6H10v16h40.1V15.6L50.1,15.6z"/>
	<path class="st1" d="M14.4,13.9h-1.7v0.9h0.6v0.9h0.4v-0.9h0.6v-0.9H14.4z"/>
	<path class="st1" d="M25.1,13.9h-1.7v0.9h0.7v0.9h0.4v-0.9h0.6V13.9z"/>
	<path class="st1" d="M36,13.9h-1.7v0.9h0.6v0.9h0.4v-0.9H36C36,14.8,36,13.9,36,13.9z"/>
	<path class="st1" d="M46.8,13.9h-1.7v0.9h0.6v0.9h0.5v-0.9h0.6V13.9z"/>
	<rect x="12.1" y="32.1" class="st1" width="36.1" height="1.2"/>
</g>
</svg>
