<?xml version="1.0" encoding="utf-8"?>
<!-- Generator: Adobe Illustrator 26.1.0, SVG Export Plug-In . SVG Version: 6.00 Build 0)  -->
<svg version="1.1" id="a" xmlns="http://www.w3.org/2000/svg" xmlns:xlink="http://www.w3.org/1999/xlink" x="0px" y="0px"
	 viewBox="0 0 61.6 54" style="enable-background:new 0 0 61.6 54;" xml:space="preserve">
<style type="text/css">
	.st0{fill:#424A42;fill-opacity:0;}
	.st1{fill:#101317;}
	.st2{fill:#778496;}
</style>
<rect class="st0" width="61.6" height="54"/>
<g>
	<path class="st1" d="M27.6,27.7h6.5v17.4h-6.5V27.7z"/>
	<path class="st2" d="M58.6,4.3H2.9v22.2h55.7V4.3z"/>
	<path class="st1" d="M8.9,1.9H6.6v1.2h0.9v1.2H8V3.1h0.9C8.9,3.1,8.9,1.9,8.9,1.9z"/>
	<path class="st1" d="M24,1.9h-2.3v1.2h0.9v1.2H23V3.1h0.9L24,1.9L24,1.9z"/>
	<path class="st1" d="M39,1.9h-2.3v1.2h0.9v1.2h0.4V3.1H39L39,1.9L39,1.9z"/>
	<path class="st1" d="M54.1,1.9h-2.3v1.2h0.9v1.2h0.5V3.1h0.9C54.1,3.1,54.1,1.9,54.1,1.9z"/>
	<rect x="5.8" y="27.3" class="st1" width="50.1" height="1.6"/>
</g>
</svg>
