<?xml version="1.0" encoding="UTF-8"?><svg id="a" xmlns="http://www.w3.org/2000/svg" viewBox="0 0 20.45 32.25"><defs><style>.b{fill:#ebd33a;}.c{fill:#f2c21d;}.d{fill:#fff;}.e{fill:#ebeae8;}.f{fill:#c8c8c1;}.g{fill:#545454;}</style></defs><path class="b" d="M6.36,23.94c-.14-.51-.33-1.01-.55-1.49-.53-1.17-1.27-2.22-2.02-3.26-.57-.8-1.15-1.59-1.66-2.44-.64-1.07-1.18-2.21-1.56-3.4C.27,12.38,.06,11.37,0,10.36c-.08-1.67,.31-3.36,1.08-4.85,.56-1.08,1.32-2.06,2.23-2.87C4.47,1.61,5.86,.87,7.34,.43,8.77,.02,10.28-.11,11.75,.09c1.62,.22,3.18,.84,4.51,1.77,1.53,1.07,2.76,2.57,3.46,4.3,.65,1.6,.84,3.37,.64,5.08-.18,1.56-.69,3.08-1.43,4.47-.67,1.26-1.53,2.41-2.38,3.56-.97,1.33-1.95,2.72-2.36,4.32-.11,.45-.18,.91-.24,1.38-.07,.58-.11,1.16-.1,1.74,.01,.74,.11,1.48,.03,2.21-.13,1.07-.69,2.1-1.58,2.71-.77,.53-1.76,.71-2.68,.56-.81-.13-1.58-.51-2.14-1.11-.46-.49-.78-1.12-.9-1.79-.09-.5-.07-1.01-.07-1.52,0-.63-.01-1.25,0-1.88,.01-.57,.04-1.16-.1-1.71-.02-.09-.05-.17-.08-.26"/><path class="c" d="M10.66,0c1.58,.77,2.97,1.96,3.94,3.43,1.04,1.57,1.61,3.42,1.75,5.29s-.15,3.77-.74,5.55c-.85,2.57-2.36,4.95-4.48,6.62-1.46,1.15-3.2,1.92-5.02,2.27,.09,.25,.17,.51,.25,.76,.03,.08,.06,.17,.08,.26,.13,.52,.11,1.07,.1,1.6h7.36c.02-.27,.04-.55,.07-.82,.05-.46,.12-.93,.24-1.38,.41-1.6,1.38-2.99,2.36-4.32,.84-1.15,1.7-2.3,2.38-3.56,.74-1.39,1.24-2.91,1.42-4.47,.2-1.71,0-3.49-.64-5.08-.7-1.73-1.94-3.23-3.46-4.3C14.93,.93,13.37,.31,11.75,.09c-.36-.05-.73-.08-1.09-.09"/><path class="d" d="M6.52,24.68c.04,.4,.03,.81,.02,1.22-.01,.63,0,1.25,0,1.88,0,.51-.02,1.02,.07,1.52,.12,.67,.44,1.3,.9,1.79,.56,.6,1.33,.98,2.14,1.11,.92,.15,1.91-.04,2.68-.56,.89-.61,1.45-1.64,1.58-2.71,.09-.73-.01-1.47-.03-2.21-.01-.58,.03-1.16,.1-1.74,.01-.1,.03-.19,.04-.29H6.52"/><path class="e" d="M12.51,24.68c.02,.95-.07,1.9-.26,2.83-.14,.67-.33,1.34-.63,1.95-.3,.61-.72,1.18-1.26,1.6-.55,.42-1.21,.68-1.89,.75,.37,.19,.77,.33,1.18,.39,.92,.15,1.91-.04,2.68-.56,.89-.61,1.45-1.64,1.58-2.71,.09-.73-.01-1.47-.03-2.21-.01-.58,.03-1.16,.1-1.74,.01-.1,.03-.19,.04-.29h-1.51"/><path class="f" d="M7.32,25.69c-.12,0-.23,.05-.32,.13-.08,.09-.13,.2-.13,.32s.05,.23,.13,.32,.2,.13,.32,.13h5.83c.12,0,.24-.05,.32-.13s.13-.2,.13-.32-.05-.24-.13-.32c-.08-.08-.2-.13-.32-.13H7.32"/><path class="f" d="M7.32,27.34c-.25,0-.45,.2-.45,.45s.2,.45,.45,.45h5.83c.12,0,.24-.05,.32-.13,.08-.08,.13-.2,.13-.32s-.05-.24-.13-.32c-.08-.08-.2-.13-.32-.13H7.32"/><path class="f" d="M7.32,28.94c-.12,0-.23,.05-.32,.13-.09,.08-.13,.2-.13,.32s.05,.24,.13,.32c.09,.09,.2,.13,.32,.13h5.83c.12,0,.24-.05,.32-.13,.09-.08,.13-.2,.13-.32s-.05-.24-.13-.32c-.08-.09-.2-.13-.32-.13H7.32"/><path class="g" d="M11.42,10.37l2.53-6.44,.66-1.69-1.09,1.45L6.63,12.87l-.3,.4h.5l3.01-.02-2.63,6.83-.7,1.81,1.13-1.57,6.83-9.55,.28-.39h-3.32"/></svg>