<?xml version="1.0" encoding="UTF-8"?><svg id="a" xmlns="http://www.w3.org/2000/svg" viewBox="0 0 47.48 26.94"><defs><style>.b{fill:#c16d3a;}</style></defs><path class="b" d="M47.48,10.1v-2.88h-2.11v-2.88l-3.11-4.34-3.11,4.34v2.88h-3.05v-2.88l-3.1-4.34-3.11,4.34v2.88h-3.05v-2.88L23.74,0l-3.11,4.34v2.88h-3.05v-2.88L14.48,0l-3.1,4.34v2.88h-3.05v-2.88L5.21,0,2.11,4.34v2.88H0v2.88H2.11v9.12H0v2.88H2.11v4.84h6.21c.06-.06,.06-2.06,.06-4.84h2.99v4.84h6.21v-4.84h2.99v4.84h6.27v-4.84h2.99v4.84h6.22v-4.84h2.99v4.84h6.32v-4.84h2.11v-2.88h-2.11V10.1h2.11Zm-17.58,0v9.12h-2.99V10.1h2.99Zm-9.26,0v9.12h-2.99V10.1h2.99Zm-12.31,0h2.99v9.12h-2.99c.06-2.99,.06-6.35,0-9.12Zm30.84,9.12h-2.99V10.1h3.05c-.06,2.77-.06,6.14-.06,9.12Z"/></svg>