<?xml version="1.0" encoding="utf-8"?>
<!-- Generator: Adobe Illustrator 26.1.0, SVG Export Plug-In . SVG Version: 6.00 Build 0)  -->
<svg version="1.1" id="Layer_1" xmlns="http://www.w3.org/2000/svg" xmlns:xlink="http://www.w3.org/1999/xlink" x="0px" y="0px"
	 viewBox="0 0 64 64" style="enable-background:new 0 0 64 64;" xml:space="preserve">
<style type="text/css">
	.st0{fill:#62B034;}
	.st1{fill:#D8EDFF;}
	.st2{fill-rule:evenodd;clip-rule:evenodd;fill:#E5FBFF;}
</style>
<g>
	<g>
		<path class="st0" d="M30.7,60.3c0,0,0,0,1.1-2L30.7,60.3c0.7,0.4,1.5,0.4,2.2,0l-1.1-2c1.1,2,1.1,2,1.1,2l0,0l0,0l0.1,0
			c0.1,0,0.1-0.1,0.2-0.1c0.2-0.1,0.5-0.3,0.8-0.5c0.7-0.4,1.7-1,2.8-1.8c2.3-1.6,5.4-3.8,8.5-6.7c6.1-5.5,12.8-13.5,12.8-22.7
			c0-14.7-11.8-26.7-26.4-26.7S5.5,13.8,5.5,28.5c0,9.2,6.7,17.2,12.8,22.7c3.1,2.8,6.2,5.1,8.5,6.7c1.2,0.8,2.1,1.4,2.8,1.8
			c0.3,0.2,0.6,0.4,0.8,0.5C30.5,60.2,30.6,60.2,30.7,60.3L30.7,60.3L30.7,60.3L30.7,60.3z"/>
	</g>
</g>
<path class="st1" d="M31.8,12.3c-5.4,0-9.8,4.4-9.8,9.8c0,5.4,4.4,9.8,9.8,9.8s9.8-4.4,9.8-9.8C41.7,16.7,37.3,12.3,31.8,12.3z"/>
<g>
	<g>
		<path class="st2" d="M33,60.3c-0.7,0.4-1.5,0.4-2.2,0h0l0,0l-0.1,0c-0.1,0-0.1-0.1-0.2-0.1c-0.2-0.1-0.5-0.3-0.8-0.5
			c-0.7-0.4-1.7-1-2.8-1.8c-2.3-1.6-5.4-3.8-8.5-6.7c-1.6-1.4-3.2-3-4.7-4.7l0.8-1.5c0,0,0-0.1,0.1-0.1c3.6-5.9,10-9.8,17.4-9.8
			s13.9,3.9,17.4,9.8l0,0l0.9,1.5c-1.5,1.8-3.2,3.4-4.8,4.8c-3.1,2.8-6.2,5.1-8.5,6.7c-1.2,0.8-2.1,1.4-2.8,1.8
			c-0.3,0.2-0.6,0.4-0.8,0.5C33.2,60.2,33.1,60.2,33,60.3L33,60.3L33,60.3L33,60.3z"/>
	</g>
</g>
</svg>
