<?xml version="1.0" encoding="utf-8"?>
<!-- Generator: Adobe Illustrator 26.1.0, SVG Export Plug-In . SVG Version: 6.00 Build 0)  -->
<svg version="1.1" id="Layer_1" xmlns="http://www.w3.org/2000/svg" xmlns:xlink="http://www.w3.org/1999/xlink" x="0px" y="0px"
	 viewBox="0 0 64 64" style="enable-background:new 0 0 64 64;" xml:space="preserve">
<style type="text/css">
	.st0{fill:#84BBFD;}
	.st1{fill:#006EF0;fill-opacity:0.15;}
	.st2{fill:#008DFE;}
	.st3{fill:#FFFFFF;}
</style>
<g>
	<g>
		<path class="st0" d="M32.1,4.5c-12.3,0-22.3,10-22.3,22.3c0,16.9,22.3,31.6,22.3,31.6s22.3-14.7,22.3-31.6
			C54.5,14.5,44.5,4.5,32.1,4.5z"/>
	</g>
</g>
<g>
	<g>
		<path class="st1" d="M32.1,4.5c-12.3,0-22.3,10-22.3,22.3c0,16.9,22.3,31.6,22.3,31.6V4.5z"/>
	</g>
</g>
<path class="st2" d="M49.5,26.8c0,1.1-0.1,2.3-0.3,3.4c-0.2,1.1-0.6,2.2-1,3.2c-0.4,1.1-1,2-1.6,3c-0.6,0.9-1.4,1.8-2.2,2.6
	c-0.8,0.8-1.7,1.5-2.6,2.2c-0.9,0.6-1.9,1.2-3,1.6c-1.1,0.4-2.1,0.8-3.3,1c-1.1,0.2-2.2,0.3-3.4,0.3c-1.1,0-2.3-0.1-3.4-0.3
	c-1.1-0.2-2.2-0.5-3.3-1c-1.1-0.4-2.1-1-3-1.6c-0.9-0.6-1.8-1.3-2.6-2.2c-0.8-0.8-1.5-1.7-2.2-2.6c-0.6-0.9-1.2-1.9-1.6-3
	c-0.4-1-0.8-2.1-1-3.2c-0.2-1.1-0.3-2.2-0.3-3.4c0-1.1,0.1-2.3,0.3-3.4c0.2-1.1,0.6-2.2,1-3.2c0.4-1.1,1-2,1.6-3
	c0.6-0.9,1.4-1.8,2.2-2.6c0.8-0.8,1.7-1.5,2.6-2.2c0.9-0.6,1.9-1.2,3-1.6c1.1-0.4,2.1-0.8,3.3-1c1.1-0.2,2.2-0.3,3.4-0.3
	c1.1,0,2.3,0.1,3.4,0.3c1.1,0.2,2.2,0.6,3.3,1c1.1,0.4,2.1,1,3,1.6c0.9,0.6,1.8,1.3,2.6,2.2c0.8,0.8,1.5,1.7,2.2,2.6
	c0.6,0.9,1.2,1.9,1.6,3c0.4,1,0.8,2.1,1,3.2C49.4,24.5,49.5,25.6,49.5,26.8z"/>
<path class="st3" d="M33.9,16.9l-7.8,0v20.7h4.1v-5.2h3.6c4.3,0,7.8-3.5,7.8-7.7C41.6,20.4,38.1,16.9,33.9,16.9z M36.4,27.2
	c-0.7,0.7-1.6,1.1-2.6,1.1h-3.6V21l3.6,0h0c1,0,1.9,0.4,2.6,1.1c0.7,0.7,1.1,1.6,1.1,2.5C37.5,25.6,37.1,26.5,36.4,27.2z"/>
</svg>
