<?xml version="1.0" encoding="utf-8"?>
<!-- Generator: Adobe Illustrator 26.1.0, SVG Export Plug-In . SVG Version: 6.00 Build 0)  -->
<svg version="1.1" id="Layer_1" xmlns="http://www.w3.org/2000/svg" xmlns:xlink="http://www.w3.org/1999/xlink" x="0px" y="0px"
	 viewBox="0 0 64 64" style="enable-background:new 0 0 64 64;" xml:space="preserve">
<style type="text/css">
	.st0{fill:#AF6636;}
	.st1{fill:#894C3D;}
	.st2{fill:#65C936;}
	.st3{fill:#D4B859;}
	.st4{fill:#A74940;}
</style>
<path class="st0" d="M41.9,42.7c-0.2,0-0.5-0.1-0.7-0.3c-0.3-0.4-0.3-1,0.1-1.3c1.5-1.3,6.2-6.5,7.1-8.3c0.2-0.5,0.8-0.6,1.2-0.4
	c0.5,0.2,0.6,0.8,0.4,1.2c-1,2.1-5.9,7.4-7.5,8.8C42.3,42.6,42.1,42.7,41.9,42.7L41.9,42.7z"/>
<path class="st0" d="M38.9,40.8c-0.2,0-0.4-0.1-0.6-0.2c-1.6-1.2-7-6.2-8.2-8.2c-0.3-0.4-0.1-1,0.3-1.3c0.4-0.3,1-0.1,1.3,0.3
	c1,1.7,6.1,6.5,7.7,7.7c0.4,0.3,0.5,0.9,0.2,1.3C39.5,40.7,39.2,40.8,38.9,40.8z"/>
<g>
	<g>
		<path class="st1" d="M22.8,56.2H11.7c-0.5,0-0.9-0.4-0.9-0.9V42.4c0-0.5,0.4-0.9,0.9-0.9h11.1c0.5,0,0.9,0.4,0.9,0.9v12.9
			C23.7,55.8,23.3,56.2,22.8,56.2z M12.6,54.3h9.3v-11h-9.3V54.3z"/>
	</g>
</g>
<path class="st0" d="M36.5,55.2c0-1.3,1.1-5.7,1.2-7.5c0.2-1.8,0.3-5,0-8.1c-0.3-3.1,0-6.9,0.3-9.2h4.4c-0.2,5.4,0.1,4.9,0.5,9
	c0.4,4.1,0.2,5.9,0.2,7.6c0.2,3.7,2,5.4,2,8.3H36.5z"/>
<path class="st2" d="M28.8,31.5c2,2.3,5,1.6,6.2,0c1.8,1.7,4.9,2.8,10.1,0.9c0.9,1,5.5,3.2,8.2-0.4c3-0.1,5.3-3.7,3.1-6.5
	c1.9-1.5,2.7-6-0.9-7.3c0.5-2.6-1.1-5.2-4.2-4.7c-0.8-3.5-4.4-5.8-9.1-3.2c-1.6-1.8-5.8-1.8-7,1.6c-1.9-1-6.2-0.1-5.8,4.9
	c-2.6-0.3-4.8,1.5-4.7,5.3c-1.5,1.3-2.7,3.6-1.6,6.6C24.5,32.1,28.8,31.5,28.8,31.5L28.8,31.5z"/>
<g>
	<g>
		<path class="st3" d="M58,56.2H6.2c-0.5,0-0.9-0.4-0.9-0.9s0.4-0.9,0.9-0.9H58c0.5,0,0.9,0.4,0.9,0.9S58.5,56.2,58,56.2z"/>
	</g>
</g>
<path class="st4" d="M9.9,37.8h14.8v5.5H9.9V37.8z"/>
<path class="st4" d="M8,46h18.5v3.7H8V46z"/>
</svg>
