<?xml version="1.0" encoding="utf-8"?>
<!-- Generator: Adobe Illustrator 26.1.0, SVG Export Plug-In . SVG Version: 6.00 Build 0)  -->
<svg version="1.1" id="a" xmlns="http://www.w3.org/2000/svg" xmlns:xlink="http://www.w3.org/1999/xlink" x="0px" y="0px"
	 viewBox="0 0 54.8 56.7" style="enable-background:new 0 0 54.8 56.7;" xml:space="preserve">
<style type="text/css">
	.st0{fill:#E0F6FF;}
	.st1{fill:#B8FAFF;}
	.st2{fill:#3D6177;}
</style>
<rect x="2.3" y="1.3" class="st0" width="51.1" height="37.1"/>
<path class="st1" d="M6.8,17c-0.6,0-1.1-0.5-1.1-1.1v-9c0-0.6,0.5-1.1,1.1-1.1H16c0.6,0,1.1,0.5,1.1,1.1S16.6,7.9,16,7.9H8v7.9
	C8,16.4,7.5,16.9,6.8,17L6.8,17z"/>
<path class="st1" d="M48,35h-9.1c-0.6,0-1.1-0.5-1.1-1.1s0.5-1.1,1.1-1.1h8v-7.9c0-0.6,0.5-1.1,1.1-1.1s1.1,0.5,1.1,1.1v9
	C49.1,34.5,48.6,35,48,35L48,35z"/>
<path class="st2" d="M51.4,40.7H3.4c-1.9,0-3.4-1.5-3.4-3.3v-34C0,1.5,1.5,0,3.4,0h48.1c1.9,0,3.4,1.5,3.4,3.3v34
	C54.8,39.2,53.3,40.7,51.4,40.7L51.4,40.7z M3.4,2.3c-0.6,0-1.1,0.5-1.1,1.1v34c0,0.6,0.5,1.1,1.1,1.1h48.1c0.6,0,1.1-0.5,1.1-1.1
	v-34c0-0.6-0.5-1.1-1.1-1.1L3.4,2.3L3.4,2.3z"/>
<path class="st2" d="M23.1,40h7.1v15.7c0,0.5-0.5,1-1,1h-5.1c-0.5,0-1-0.5-1-1V40L23.1,40z"/>
</svg>
