<?xml version="1.0" encoding="UTF-8"?><svg id="a" xmlns="http://www.w3.org/2000/svg" viewBox="0 0 60.89 60.89"><defs><style>.b{fill:rgba(69,54,55,0);}.c{fill:#f9c639;}.d{fill:#453637;}</style></defs><rect class="b" width="60.89" height="60.89"/><path class="d" d="M24.65,55.09v1.72h-1.73v-1.72c0-.07,.03-.13,.07-.17s.1-.07,.17-.07h.12V30.03c0-.07,.03-.13,.07-.17s.1-.07,.17-.07h.49c.07,0,.13,.03,.17,.07s.07,.11,.07,.17v24.82h.12c.07,0,.13,.02,.17,.07,.04,.05,.07,.11,.07,.17h.01Zm14.82-.25h-.12V30.03c0-.07-.03-.13-.07-.17s-.1-.07-.17-.07h-.49c-.07,0-.13,.03-.17,.07s-.07,.11-.07,.17v24.82h-.12c-.07,0-.13,.02-.17,.07-.04,.05-.07,.11-.07,.17v1.72h1.72v-1.72c0-.07-.03-.13-.07-.17s-.1-.07-.17-.07h0Z"/><path class="c" d="M44.85,32.75v10.83c0,.23-.04,.44-.13,.66-.09,.21-.21,.4-.37,.56s-.35,.29-.56,.37c-.21,.09-.43,.13-.66,.13H19.51c-.23,0-.45-.04-.66-.13-.21-.09-.4-.21-.56-.37-.16-.16-.28-.35-.37-.56s-.13-.43-.13-.66v-10.83c0-.23,.04-.45,.13-.66,.08-.21,.21-.4,.37-.56s.35-.28,.56-.37,.43-.13,.66-.13h23.63c.22,0,.45,.05,.66,.13,.21,.09,.4,.21,.56,.37s.28,.35,.37,.56c.08,.21,.13,.43,.13,.66Z"/></svg>