<?xml version="1.0" encoding="UTF-8"?><svg id="a" xmlns="http://www.w3.org/2000/svg" viewBox="0 0 60.89 60.89"><defs><style>.b{fill:#f9c639;}.c{opacity:0;}.c,.d{fill:#453637;}</style></defs><rect class="c" width="60.89" height="60.89"/><path class="d" d="M20.06,54.25v2.56h-2.69v-2.56c0-.1,.04-.19,.11-.26,.07-.07,.16-.11,.27-.11h.19V16.92c0-.1,.04-.19,.11-.26,.07-.07,.16-.11,.27-.11h.77c.11,0,.2,.04,.27,.11,.07,.07,.11,.16,.11,.26V53.88h.19c.11,0,.2,.03,.27,.11,.07,.07,.11,.16,.11,.26Zm23.07-.37h-.19V16.92c0-.1-.04-.19-.11-.26-.07-.07-.16-.11-.27-.11h-.77c-.11,0-.2,.04-.27,.11-.07,.07-.11,.16-.11,.26V53.88h-.19c-.11,0-.2,.03-.27,.11-.07,.07-.11,.16-.11,.26v2.56h2.68v-2.56c0-.1-.04-.19-.11-.26-.07-.07-.16-.11-.27-.11Z"/><path class="b" d="M51.52,20.98v16.13c0,.34-.07,.66-.2,.98-.14,.31-.33,.59-.58,.83s-.54,.43-.87,.55c-.33,.13-.67,.19-1.03,.19H12.05c-.36,0-.7-.06-1.03-.19-.33-.13-.62-.31-.87-.55-.25-.24-.44-.52-.58-.83-.14-.31-.21-.64-.21-.98V20.98c0-.34,.07-.67,.21-.98,.13-.31,.33-.59,.58-.83,.25-.24,.54-.42,.87-.55,.33-.13,.67-.19,1.03-.19H48.84c.35,0,.7,.07,1.03,.19,.33,.13,.62,.31,.87,.55,.25,.24,.44,.52,.58,.83,.13,.31,.2,.64,.2,.98Z"/></svg>