<?xml version="1.0" encoding="UTF-8"?><svg id="a" xmlns="http://www.w3.org/2000/svg" viewBox="0 0 60.89 60.89"><defs><style>.b{fill:#f9c639;}.c{opacity:0;}.c,.d{fill:#453637;}</style></defs><rect class="c" width="60.89" height="60.89"/><path class="d" d="M17.19,53.37v3.44h-3.43v-3.44c0-.14,.05-.26,.15-.35,.09-.1,.21-.15,.34-.15h.24V3.21c0-.14,.05-.25,.15-.35,.09-.09,.21-.15,.34-.15h.98c.14,0,.26,.05,.35,.15,.09,.1,.15,.21,.15,.35V52.87h.24c.14,0,.25,.05,.34,.15,.09,.09,.15,.21,.15,.35Zm29.48-.49h-.24V3.21c0-.14-.05-.25-.15-.35-.09-.09-.21-.15-.34-.15h-.98c-.14,0-.25,.05-.35,.15-.09,.1-.14,.21-.14,.35V52.87h-.24c-.14,0-.25,.05-.35,.15-.09,.09-.14,.21-.14,.35v3.44h3.43v-3.44c0-.14-.05-.26-.15-.35-.09-.1-.21-.15-.34-.15Z"/><path class="b" d="M57.4,8.65V30.34c0,.45-.09,.89-.26,1.31-.18,.42-.42,.8-.74,1.12s-.69,.57-1.11,.74c-.42,.18-.86,.26-1.31,.26H6.95c-.46,0-.9-.08-1.31-.26-.42-.17-.79-.42-1.11-.74-.32-.32-.57-.7-.74-1.12-.18-.42-.27-.86-.27-1.31V8.65c0-.46,.09-.9,.27-1.32,.17-.42,.42-.8,.74-1.12,.32-.32,.69-.57,1.11-.74,.42-.17,.85-.26,1.31-.26H53.97c.45,0,.89,.09,1.31,.26,.42,.18,.79,.42,1.11,.74,.32,.32,.57,.7,.74,1.12,.17,.42,.26,.86,.26,1.32Z"/></svg>