<?xml version="1.0" encoding="UTF-8"?><svg id="a" xmlns="http://www.w3.org/2000/svg" viewBox="0 0 57.99 58.48"><defs><style>.b{fill:#1a788f;}.c{fill:#a5f2ff;}.d{fill:#204572;}</style></defs><rect class="c" x="2.8" y="2.37" width="52.15" height="52.89"/><path class="d" d="M55.26,56.5H2.69c-.63,0-1.14-.52-1.14-1.15V2.79c0-.64,.51-1.15,1.14-1.15H55.26c.63,0,1.14,.51,1.14,1.15V55.36c0,.63-.51,1.15-1.14,1.15ZM3.83,54.22H54.12V3.93H3.83V54.22Z"/><path class="b" d="M16.41,49.65h-6.85c-.64,0-1.15-.51-1.15-1.14v-6.86c0-.63,.51-1.14,1.15-1.14s1.14,.51,1.14,1.14v5.71h5.71c.63,0,1.15,.52,1.15,1.15s-.52,1.14-1.15,1.14Z"/><path class="b" d="M48.41,17.65c-.63,0-1.14-.51-1.14-1.14v-5.71h-5.71c-.64,0-1.15-.52-1.15-1.15s.51-1.14,1.15-1.14h6.85c.63,0,1.15,.51,1.15,1.14v6.86c0,.63-.52,1.14-1.15,1.14Z"/><path class="b" d="M9.55,49.65c-.3,0-.59-.11-.81-.33-.44-.45-.44-1.17,0-1.61L47.6,8.84c.44-.44,1.17-.44,1.61,0,.45,.45,.45,1.17,0,1.61L10.35,49.31c-.22,.22-.51,.33-.8,.33Z"/><ellipse class="d" cx="2.96" cy="3.11" rx="2.96" ry="2.89"/><ellipse class="d" cx="54.66" cy="2.89" rx="2.96" ry="2.89"/><ellipse class="d" cx="3.33" cy="55.59" rx="2.96" ry="2.89"/><ellipse class="d" cx="55.02" cy="55.37" rx="2.96" ry="2.89"/></svg>