<?xml version="1.0" encoding="UTF-8"?><svg id="a" xmlns="http://www.w3.org/2000/svg" viewBox="0 0 24.04 47.88"><defs><style>.b{fill:#292e36;}.b,.c{fill-rule:evenodd;}.c{fill:#a6b6cf;}</style></defs><path class="b" d="M24.04,3.03c0-1.67-1.36-3.03-3.03-3.03H3.03C1.36,0,0,1.36,0,3.03V35.11c0,1.67,1.36,3.03,3.03,3.03H21.01c1.68,0,3.03-1.36,3.03-3.03V3.03Z"/><path class="c" d="M22.4,3.23c0-.76-.61-1.38-1.37-1.38H3.01c-.76,0-1.38,.62-1.38,1.38v31.47c0,.76,.62,1.37,1.38,1.37H21.03c.76,0,1.37-.62,1.37-1.37V3.23Z"/><path class="b" d="M14.03,46.58v-8.95h-4.01v8.95H5.54v1.29h13.55v-1.29h-5.06Z"/></svg>